<svg width="24" height="24" viewBox="0 0 24 24" fill="none" xmlns="http://www.w3.org/2000/svg">
<path d="M15.75 6.75H8.25C7.42157 6.75 6.75 7.42157 6.75 8.25V15.75C6.75 16.5784 7.42157 17.25 8.25 17.25H15.75C16.5784 17.25 17.25 16.5784 17.25 15.75V8.25C17.25 7.42157 16.5784 6.75 15.75 6.75ZM12 15C10.3431 15 9 13.6569 9 12C9 10.3431 10.3431 9 12 9C13.6569 9 15 10.3431 15 12C15 12.7956 14.6839 13.5587 14.1213 14.1213C13.5587 14.6839 12.7956 15 12 15ZM15.375 9.5625C14.8572 9.5625 14.4375 9.14277 14.4375 8.625C14.4375 8.10723 14.8572 7.6875 15.375 7.6875C15.8928 7.6875 16.3125 8.10723 16.3125 8.625C16.3125 8.87364 16.2137 9.1121 16.0379 9.28791C15.8621 9.46373 15.6236 9.5625 15.375 9.5625Z" fill="#646464"/>
<path d="M12 13.5C12.8284 13.5 13.5 12.8284 13.5 12C13.5 11.1716 12.8284 10.5 12 10.5C11.1716 10.5 10.5 11.1716 10.5 12C10.5 12.8284 11.1716 13.5 12 13.5Z" fill="#646464"/>
<path d="M12 0C5.37258 0 0 5.37258 0 12C0 18.6274 5.37258 24 12 24C18.6274 24 24 18.6274 24 12C24 8.8174 22.7357 5.76516 20.4853 3.51472C18.2348 1.26428 15.1826 0 12 0ZM18.75 15.75C18.75 17.4069 17.4069 18.75 15.75 18.75H8.25C6.59315 18.75 5.25 17.4069 5.25 15.75V8.25C5.25 6.59315 6.59315 5.25 8.25 5.25H15.75C17.4069 5.25 18.75 6.59315 18.75 8.25V15.75Z" fill="#646464"/>
</svg>
