<svg width="24" height="24" viewBox="0 0 24 24" fill="none" xmlns="http://www.w3.org/2000/svg">
<path fill-rule="evenodd" clip-rule="evenodd" d="M12 0C5.37191 0 0 5.37317 0 12C0 18.6281 5.37191 24.0013 12 24.0013C18.6281 24.0013 24 18.6281 24 12C24 5.37191 18.6281 0 12 0ZM9.06344 16.973H6.63314V9.15434H9.06344V16.973ZM7.83251 8.19484C7.06618 8.19484 6.57002 7.65071 6.57002 6.97906C6.57002 6.291 7.08132 5.76328 7.86407 5.76328C8.64808 5.76328 9.12783 6.291 9.14298 6.97906C9.14298 7.65071 8.64808 8.19484 7.83251 8.19484ZM17.9375 16.973H15.5072V12.6388C15.5072 11.6314 15.1562 10.9433 14.2763 10.9433C13.6046 10.9433 13.2057 11.4079 13.0289 11.8561C12.9645 12.0164 12.9494 12.2399 12.9494 12.4621V16.9717H10.5191V11.6465C10.5191 10.6719 10.4875 9.85629 10.4547 9.15181H12.5656L12.678 10.2388H12.7259C13.0453 9.72751 13.8294 8.97507 15.1411 8.97507C16.7407 8.97507 17.9388 10.0469 17.9388 12.3497V16.973H17.9375Z" fill="#646464"/>
</svg>
