<svg width="135" height="40" viewBox="0 0 135 40" fill="none" xmlns="http://www.w3.org/2000/svg">
<path d="M8.6687 39.9979C8.31988 39.9979 7.97949 39.9938 7.63341 39.9867C6.91647 39.9782 6.20121 39.9212 5.4935 39.8162C4.83359 39.7124 4.19431 39.5193 3.59676 39.2432C3.00468 38.9695 2.46466 38.6106 1.99738 38.1802C1.52334 37.7549 1.12868 37.2616 0.829041 36.7199C0.526098 36.1746 0.316443 35.5902 0.20738 34.9869C0.0896019 34.3387 0.0258789 33.6833 0.0167608 33.0262C0.00950236 32.8057 0 32.0714 0 32.0714V7.91524C0 7.91524 0.0101206 7.19223 0.016818 6.97982C0.0255486 6.32383 0.0889011 5.66941 0.206327 5.0222C0.315591 4.41729 0.525408 3.83117 0.828514 3.28415C1.12705 2.7428 1.51952 2.24915 1.99071 1.82232C2.46137 1.39143 3.00311 1.03064 3.5962 0.753121C4.19238 0.477981 4.83045 0.286241 5.48902 0.184325C6.19906 0.0782559 6.9168 0.0209098 7.63622 0.012768L8.66926 0H126.325L127.371 0.0132804C128.083 0.0210177 128.795 0.0778522 129.498 0.1833C130.163 0.286495 130.808 0.479573 131.411 0.756185C132.599 1.31547 133.566 2.20032 134.176 3.2867C134.474 3.82995 134.681 4.41128 134.789 5.01097C134.907 5.66349 134.974 6.32306 134.988 6.98442C134.991 7.28056 134.991 7.59866 134.991 7.91524C135 8.30737 135 8.68061 135 9.05692V30.942C135 31.3219 135 31.6926 134.991 32.0663C134.991 32.4064 134.991 32.7179 134.986 33.0385C134.973 33.688 134.908 34.3358 134.791 34.9767C134.684 35.5843 134.475 36.1733 134.173 36.723C133.871 37.2588 133.478 37.7478 133.01 38.172C132.542 38.6047 132.001 38.9657 131.408 39.2412C130.806 39.5194 130.163 39.7132 129.498 39.8162C128.79 39.9217 128.075 39.9788 127.358 39.9867C127.023 39.9938 126.672 39.9979 126.331 39.9979L125.09 40L8.6687 39.9979Z" fill="black"/>
<path d="M41.3023 27.1396H36.5689L35.4322 30.4961H33.4273L37.9107 18.0781H39.9937L44.4771 30.4961H42.438L41.3023 27.1396ZM37.0591 25.5908H40.8111L38.9615 20.1435H38.9097L37.0591 25.5908ZM54.1597 25.9697C54.1597 28.7832 52.6538 30.5908 50.3814 30.5908C49.2068 30.6523 48.1003 30.037 47.5327 29.0068H47.4897V33.4912H45.6313V21.4424H47.4302V22.9482H47.4644C48.0572 21.9245 49.1648 21.3095 50.3472 21.3476C52.645 21.3477 54.1597 23.1641 54.1597 25.9697ZM52.2495 25.9697C52.2495 24.1367 51.3023 22.9316 49.857 22.9316C48.437 22.9316 47.482 24.1621 47.482 25.9697C47.482 27.7939 48.437 29.0156 49.857 29.0156C51.3023 29.0156 52.2495 27.8193 52.2495 25.9697ZM64.1245 25.9697C64.1245 28.7832 62.6187 30.5908 60.3462 30.5908C59.1716 30.6523 58.0652 30.037 57.4976 29.0068H57.4546V33.4912H55.5962V21.4424H57.395V22.9482H57.4292C58.022 21.9245 59.1296 21.3095 60.312 21.3477C62.6099 21.3477 64.1245 23.1641 64.1245 25.9697ZM62.2144 25.9697C62.2144 24.1367 61.2671 22.9316 59.8218 22.9316C58.4019 22.9316 57.4468 24.1621 57.4468 25.9697C57.4468 27.7939 58.4019 29.0156 59.8218 29.0156C61.2671 29.0156 62.2144 27.8193 62.2144 25.9697ZM70.7105 27.0361C70.8482 28.2676 72.0445 29.0761 73.6792 29.0761C75.2456 29.0761 76.3726 28.2675 76.3726 27.1572C76.3726 26.1933 75.6929 25.6162 74.0835 25.2207L72.4742 24.833C70.1939 24.2822 69.1353 23.2158 69.1353 21.4853C69.1353 19.3427 71.0025 17.871 73.6538 17.871C76.2778 17.871 78.0767 19.3427 78.1372 21.4853H76.2612C76.1489 20.246 75.1245 19.498 73.6274 19.498C72.1304 19.498 71.106 20.2548 71.106 21.3564C71.106 22.2343 71.7603 22.7509 73.3608 23.1464L74.729 23.4823C77.2769 24.0849 78.3355 25.1083 78.3355 26.9247C78.3355 29.248 76.4849 30.703 73.5415 30.703C70.7876 30.703 68.9282 29.2821 68.8081 27.036L70.7105 27.0361ZM82.3462 19.2998V21.4424H84.0679V22.9141H82.3462V27.9053C82.3462 28.6807 82.6909 29.042 83.4478 29.042C83.6522 29.0384 83.8562 29.0241 84.0591 28.999V30.4619C83.7188 30.5255 83.373 30.5542 83.0269 30.5478C81.1939 30.5478 80.479 29.8593 80.479 28.1035V22.9141H79.1626V21.4424H80.479V19.2998H82.3462ZM85.065 25.9697C85.065 23.1211 86.7427 21.3311 89.359 21.3311C91.984 21.3311 93.6539 23.1211 93.6539 25.9697C93.6539 28.8262 91.9927 30.6084 89.359 30.6084C86.7261 30.6084 85.065 28.8262 85.065 25.9697ZM91.7603 25.9697C91.7603 24.0156 90.8648 22.8623 89.3589 22.8623C87.8531 22.8623 86.9586 24.0244 86.9586 25.9697C86.9586 27.9316 87.8531 29.0762 89.3589 29.0762C90.8648 29.0762 91.7603 27.9316 91.7603 25.9697ZM95.1861 21.4424H96.9585V22.9834H97.0015C97.2487 21.9914 98.1577 21.3086 99.1793 21.3476C99.3934 21.3469 99.607 21.3701 99.816 21.417V23.1553C99.5456 23.0726 99.2636 23.0347 98.981 23.043C98.4346 23.0208 97.9059 23.2385 97.5336 23.639C97.1613 24.0395 96.9826 24.5827 97.0445 25.126V30.4961H95.1861V21.4424ZM108.384 27.8369C108.134 29.4805 106.534 30.6084 104.486 30.6084C101.852 30.6084 100.217 28.8437 100.217 26.0127C100.217 23.1728 101.861 21.331 104.408 21.331C106.913 21.331 108.488 23.0517 108.488 25.7969V26.4336H102.093V26.5459C102.034 27.2199 102.266 27.8871 102.732 28.3778C103.198 28.8684 103.853 29.1352 104.529 29.1103C105.431 29.1948 106.281 28.677 106.62 27.8369L108.384 27.8369ZM102.102 25.1348H106.628C106.662 24.5291 106.442 23.9368 106.02 23.5006C105.599 23.0644 105.014 22.8239 104.408 22.8369C103.796 22.8333 103.209 23.0739 102.776 23.5054C102.343 23.9369 102.101 24.5235 102.102 25.1348Z" fill="white"/>
<path d="M36.8262 8.73101C37.6151 8.6744 38.3879 8.97456 38.9318 9.54888C39.4756 10.1232 39.7333 10.9112 39.6338 11.6959C39.6338 13.6021 38.6035 14.6979 36.8262 14.6979H34.6709V8.73101H36.8262ZM35.5977 13.854H36.7227C37.2865 13.8877 37.8355 13.6656 38.2172 13.2493C38.599 12.833 38.7728 12.2668 38.6904 11.708C38.7668 11.1515 38.5905 10.5901 38.2097 10.1771C37.8289 9.76423 37.2835 9.5431 36.7227 9.57422H35.5977V13.854ZM40.6807 12.4444C40.6035 11.6372 40.9905 10.8561 41.6794 10.4286C42.3684 10.0011 43.2401 10.0011 43.929 10.4286C44.618 10.8561 45.005 11.6372 44.9278 12.4444C45.0064 13.2523 44.6198 14.035 43.9302 14.4634C43.2407 14.8918 42.3678 14.8918 41.6782 14.4634C40.9887 14.035 40.602 13.2523 40.6807 12.4444ZM44.0137 12.4444C44.0137 11.4683 43.5752 10.8975 42.8057 10.8975C42.0332 10.8975 41.5987 11.4683 41.5987 12.4444C41.5987 13.4283 42.0333 13.9947 42.8057 13.9947C43.5752 13.9947 44.0137 13.4243 44.0137 12.4444ZM50.5733 14.6978H49.6514L48.7207 11.3814H48.6504L47.7237 14.6978H46.8106L45.5694 10.1948H46.4707L47.2774 13.6308H47.3438L48.2696 10.1948H49.1221L50.0479 13.6308H50.1182L50.9209 10.1948H51.8096L50.5733 14.6978ZM52.8535 10.1948H53.709V10.9102H53.7754C54.0064 10.3835 54.546 10.0613 55.1192 10.1079C55.563 10.0745 55.9979 10.2448 56.3011 10.5706C56.6043 10.8964 56.7429 11.3424 56.6778 11.7827V14.6977H55.7891V12.0059C55.7891 11.2822 55.4746 10.9224 54.8174 10.9224C54.5164 10.9084 54.2242 11.0265 54.0176 11.2458C53.8109 11.4652 53.7103 11.7638 53.7422 12.0635V14.6978H52.8535V10.1948ZM58.0938 8.43701H58.9824V14.6978H58.0938V8.43701ZM60.2178 12.4444C60.1406 11.6372 60.5277 10.8561 61.2167 10.4285C61.9057 10.001 62.7775 10.001 63.4664 10.4285C64.1554 10.8561 64.5425 11.6372 64.4654 12.4444C64.5439 13.2524 64.1572 14.035 63.4676 14.4634C62.7781 14.8918 61.9051 14.8918 61.2155 14.4634C60.5259 14.035 60.1392 13.2524 60.2178 12.4444ZM63.5508 12.4444C63.5508 11.4683 63.1123 10.8975 62.3428 10.8975C61.5703 10.8975 61.1358 11.4683 61.1358 12.4444C61.1358 13.4283 61.5704 13.9947 62.3428 13.9947C63.1123 13.9947 63.5508 13.4243 63.5508 12.4444ZM65.4009 13.4243C65.4009 12.6138 66.0044 12.1465 67.0757 12.0801L68.2954 12.0098V11.6211C68.2954 11.1455 67.981 10.877 67.3736 10.877C66.8775 10.877 66.5337 11.0591 66.4351 11.3775H65.5747C65.6656 10.604 66.3931 10.1079 67.4146 10.1079C68.5435 10.1079 69.1802 10.6699 69.1802 11.6211V14.6978H68.3247V14.065H68.2544C67.9639 14.5271 67.4472 14.7972 66.9019 14.772C66.5196 14.8117 66.1384 14.6879 65.8524 14.4312C65.5664 14.1744 65.4024 13.8087 65.4009 13.4243ZM68.2954 13.0396V12.6631L67.1958 12.7334C66.5757 12.7749 66.2945 12.9859 66.2945 13.3828C66.2945 13.7881 66.646 14.0239 67.1295 14.0239C67.4156 14.0529 67.7013 13.9645 67.9211 13.7789C68.1409 13.5934 68.276 13.3266 68.2954 13.0396ZM70.3482 12.4444C70.3482 11.0215 71.0796 10.1201 72.2173 10.1201C72.7918 10.0937 73.3298 10.4015 73.5982 10.9101H73.6646V8.43701H74.5532V14.6978H73.7017V13.9863H73.6314C73.3428 14.4907 72.7981 14.7934 72.2173 14.772C71.0718 14.772 70.3482 13.8706 70.3482 12.4444ZM71.2662 12.4444C71.2662 13.3994 71.7164 13.9741 72.4693 13.9741C73.2183 13.9741 73.6812 13.3911 73.6812 12.4483C73.6812 11.5098 73.2134 10.9185 72.4693 10.9185C71.7212 10.9185 71.2662 11.4971 71.2662 12.4444ZM78.23 12.4444C78.1528 11.6372 78.5398 10.8561 79.2287 10.4286C79.9177 10.0011 80.7894 10.0011 81.4783 10.4286C82.1673 10.8561 82.5543 11.6372 82.4771 12.4444C82.5558 13.2523 82.1691 14.035 81.4796 14.4634C80.79 14.8918 79.9171 14.8918 79.2275 14.4634C78.538 14.035 78.1513 13.2523 78.23 12.4444ZM81.563 12.4444C81.563 11.4683 81.1245 10.8975 80.355 10.8975C79.5826 10.8975 79.148 11.4683 79.148 12.4444C79.148 13.4283 79.5826 13.9947 80.355 13.9947C81.1245 13.9947 81.563 13.4243 81.563 12.4444ZM83.6695 10.1948H84.5249V10.9102H84.5913C84.8223 10.3835 85.3619 10.0613 85.9351 10.1079C86.3789 10.0745 86.8138 10.2448 87.117 10.5706C87.4202 10.8964 87.5588 11.3424 87.4937 11.7827V14.6977H86.605V12.0059C86.605 11.2822 86.2906 10.9224 85.6333 10.9224C85.3323 10.9084 85.0401 11.0265 84.8335 11.2458C84.6268 11.4652 84.5262 11.7638 84.5581 12.0635V14.6978H83.6695V10.1948ZM92.5152 9.07374V10.2153H93.4908V10.9639H92.5152V13.2793C92.5152 13.751 92.7095 13.9575 93.1519 13.9575C93.2651 13.9572 93.3783 13.9503 93.4908 13.937V14.6773C93.3312 14.7058 93.1695 14.721 93.0074 14.7227C92.0191 14.7227 91.6255 14.375 91.6255 13.5068V10.9638H90.9107V10.2153H91.6255V9.07374H92.5152ZM94.7046 8.43701H95.5855V10.9185H95.6558C95.8978 10.3872 96.4469 10.0646 97.0288 10.1118C97.4701 10.0878 97.8991 10.2618 98.199 10.5864C98.4989 10.9111 98.6384 11.3525 98.5796 11.7905V14.6978H97.69V12.0098C97.69 11.2905 97.355 10.9263 96.7271 10.9263C96.4179 10.9009 96.1133 11.0133 95.8948 11.2334C95.6762 11.4535 95.5659 11.7589 95.5933 12.0679V14.6978H94.7047L94.7046 8.43701ZM103.761 13.4819C103.512 14.3313 102.69 14.8801 101.81 14.7847C101.21 14.8005 100.633 14.5516 100.232 14.1041C99.8315 13.6565 99.6479 13.0555 99.73 12.4605C99.6501 11.8638 99.833 11.2618 100.231 10.8105C100.63 10.3591 101.204 10.1028 101.806 10.1079C103.059 10.1079 103.815 10.9639 103.815 12.3779V12.688H100.635V12.7378C100.607 13.072 100.721 13.4025 100.95 13.6481C101.178 13.8936 101.499 14.0315 101.834 14.0278C102.269 14.08 102.692 13.8643 102.906 13.4819L103.761 13.4819ZM100.635 12.0308H102.91C102.932 11.7252 102.825 11.4242 102.614 11.2021C102.403 10.9799 102.108 10.8572 101.801 10.8643C101.491 10.8604 101.192 10.982 100.972 11.2017C100.753 11.4213 100.631 11.7203 100.635 12.0308Z" fill="white"/>
<path d="M23.7689 20.3007C23.7907 18.6042 24.6801 17.0372 26.1254 16.1486C25.2095 14.8405 23.7304 14.0409 22.1343 13.9909C20.455 13.8147 18.8271 14.9958 17.9714 14.9958C17.0991 14.9958 15.7816 14.0084 14.3629 14.0376C12.4962 14.0979 10.7981 15.1335 9.88997 16.7655C7.95597 20.1139 9.39855 25.035 11.2512 27.7416C12.1781 29.0669 13.2613 30.5474 14.6788 30.4949C16.0659 30.4374 16.5839 29.6104 18.2582 29.6104C19.917 29.6104 20.403 30.4949 21.8492 30.4615C23.3376 30.4373 24.2753 29.1303 25.1697 27.7924C25.8357 26.848 26.3481 25.8043 26.6881 24.6999C24.9204 23.9522 23.7709 22.22 23.7689 20.3007ZM21.0373 12.2109C21.8488 11.2367 22.2486 9.98451 22.1518 8.72028C20.9119 8.8505 19.7667 9.44306 18.9442 10.3799C18.132 11.3042 17.7206 12.5134 17.8005 13.7413C19.0569 13.7542 20.2499 13.1902 21.0373 12.2109Z" fill="white"/>
</svg>
