<svg width="135" height="40" viewBox="0 0 135 40" fill="none" xmlns="http://www.w3.org/2000/svg">
<path d="M130 0H5C2.23858 0 0 2.23858 0 5V35C0 37.7614 2.23858 40 5 40H130C132.761 40 135 37.7614 135 35V5C135 2.23858 132.761 0 130 0Z" fill="black"/>
<path d="M68.14 21.75C65.7954 21.761 63.9027 23.6687 63.91 26.0133C63.9174 28.3579 65.822 30.2536 68.1666 30.25C70.5112 30.2463 72.41 28.3446 72.41 26C72.4265 24.8644 71.9812 23.7707 71.1763 22.9695C70.3713 22.1683 69.2755 21.7282 68.14 21.75ZM68.14 28.58C67.0832 28.6539 66.0887 28.0743 65.632 27.1185C65.1754 26.1626 65.3494 25.0247 66.071 24.2491C66.7925 23.4734 67.9148 23.2176 68.9012 23.6041C69.8875 23.9906 70.5374 24.9407 70.54 26C70.5726 26.6627 70.336 27.3104 69.8841 27.7962C69.4323 28.282 68.8033 28.5646 68.14 28.58ZM58.83 21.75C56.4841 21.7555 54.5863 23.6608 54.59 26.0067C54.5937 28.3526 56.4974 30.2518 58.8433 30.25C61.1892 30.2482 63.09 28.3459 63.09 26C63.1065 24.8644 62.6612 23.7707 61.8563 22.9695C61.0513 22.1683 59.9555 21.7282 58.82 21.75H58.83ZM58.83 28.58C57.7727 28.6581 56.7752 28.0814 56.3154 27.1261C55.8555 26.1708 56.0268 25.0315 56.7473 24.2537C57.4678 23.4759 58.5908 23.2181 59.5784 23.6037C60.566 23.9893 61.2171 24.9398 61.22 26C61.2526 26.6627 61.016 27.3104 60.5641 27.7962C60.1123 28.282 59.4833 28.5646 58.82 28.58H58.83ZM47.74 23.06V24.86H52.06C51.9923 25.7078 51.6399 26.5078 51.06 27.13C50.186 28.0202 48.9765 28.4997 47.73 28.45C45.079 28.45 42.93 26.301 42.93 23.65C42.93 20.999 45.079 18.85 47.73 18.85C48.9478 18.8302 50.1238 19.2941 51 20.14L52.27 18.87C51.0749 17.6599 49.4407 16.9853 47.74 17C45.319 16.9058 43.0404 18.1437 41.8019 20.2261C40.5633 22.3085 40.5633 24.9016 41.8019 26.984C43.0404 29.0663 45.319 30.3042 47.74 30.21C49.4718 30.2883 51.1527 29.6137 52.35 28.36C53.3977 27.2089 53.957 25.6958 53.91 24.14C53.9132 23.761 53.8797 23.3826 53.81 23.01L47.74 23.06ZM93.05 24.46C92.5161 22.8892 91.0679 21.8111 89.41 21.75C88.3044 21.7479 87.2472 22.2034 86.4894 23.0085C85.7316 23.8137 85.3409 24.8965 85.41 26C85.3855 27.1293 85.8212 28.22 86.6171 29.0216C87.4129 29.8231 88.5006 30.2666 89.63 30.25C91.0509 30.2577 92.3806 29.5515 93.17 28.37L91.72 27.37C91.2798 28.104 90.4859 28.5522 89.63 28.55C88.7436 28.5838 87.9266 28.0722 87.57 27.26L93.26 24.91L93.05 24.46ZM87.25 25.88C87.2091 25.2552 87.4213 24.6402 87.839 24.1736C88.2566 23.7071 88.8445 23.4282 89.47 23.4C90.1294 23.3566 90.7511 23.7107 91.05 24.3L87.25 25.88ZM82.63 30H84.5V17.5H82.63V30ZM79.57 22.7H79.5C78.93 22.0627 78.1151 21.6989 77.26 21.7C74.9902 21.8101 73.2063 23.6825 73.2063 25.955C73.2063 28.2275 74.9902 30.0999 77.26 30.21C78.1178 30.2244 78.938 29.8583 79.5 29.21H79.56V29.82C79.56 31.45 78.69 32.32 77.29 32.32C76.3363 32.2977 75.4907 31.701 75.15 30.81L73.52 31.49C74.1477 33.0168 75.6392 34.0099 77.29 34.0001C79.48 34.0001 81.29 32.71 81.29 29.57V22H79.57V22.7ZM77.43 28.58C76.0929 28.4622 75.0674 27.3423 75.0674 26C75.0674 24.6577 76.0929 23.5379 77.43 23.42C78.0761 23.4532 78.6815 23.7458 79.1089 24.2315C79.5362 24.7172 79.7494 25.3549 79.7 26C79.7551 26.6481 79.5427 27.2904 79.112 27.7778C78.6813 28.2652 78.0699 28.555 77.42 28.58H77.43ZM101.81 17.5H97.34V30H99.21V25.26H101.82C103.273 25.3644 104.662 24.6485 105.42 23.405C106.178 22.1615 106.178 20.5986 105.42 19.355C104.662 18.1115 103.273 17.3957 101.82 17.5H101.81ZM101.81 23.5H99.2V19.24H101.85C103.035 19.24 103.995 20.2004 103.995 21.385C103.995 22.5697 103.035 23.53 101.85 23.53L101.81 23.5ZM113.34 21.7C111.949 21.6169 110.641 22.3671 110.01 23.61L111.67 24.3C112.004 23.6837 112.671 23.3229 113.37 23.38C113.85 23.324 114.331 23.463 114.708 23.7657C115.084 24.0685 115.322 24.5096 115.37 24.99V25.12C114.769 24.802 114.1 24.6371 113.42 24.64C111.63 24.64 109.82 25.64 109.82 27.45C109.856 28.2297 110.205 28.9618 110.789 29.4798C111.373 29.9978 112.142 30.2575 112.92 30.2C113.879 30.2689 114.8 29.8087 115.32 29H115.38V30H117.18V25.19C117.18 23 115.52 21.73 113.39 21.73L113.34 21.7ZM113.11 28.55C112.5 28.55 111.65 28.24 111.65 27.49C111.65 26.49 112.71 26.16 113.65 26.16C114.244 26.1454 114.831 26.2904 115.35 26.58C115.221 27.6994 114.287 28.5526 113.16 28.58L113.11 28.55ZM123.74 22L121.6 27.42H121.54L119.32 22H117.32L120.65 29.58L118.75 33.79H120.7L125.82 22H123.74ZM106.93 30H108.8V17.5H106.93V30Z" fill="white"/>
<path d="M47.42 10.24C47.4544 10.9812 47.1833 11.7041 46.67 12.24C46.0965 12.8358 45.2965 13.1594 44.47 13.13C43.2024 13.12 42.0642 12.3512 41.5817 11.1789C41.0992 10.0066 41.3665 8.65929 42.26 7.75997C42.8405 7.1673 43.6406 6.84149 44.47 6.85997C44.8928 6.85856 45.3113 6.94364 45.7 7.10997C46.0619 7.25592 46.384 7.48553 46.64 7.77997L46.11 8.30997C45.7054 7.82865 45.0979 7.56566 44.47 7.59997C43.8389 7.59687 43.2337 7.85106 42.794 8.30391C42.3544 8.75676 42.1182 9.36919 42.14 9.99997C42.1266 10.9532 42.688 11.8208 43.5629 12.1992C44.4379 12.5776 45.4546 12.3925 46.14 11.73C46.4477 11.3965 46.6252 10.9635 46.64 10.51H44.47V9.78997H47.38C47.4067 9.93848 47.4201 10.0891 47.42 10.24ZM52 7.73997H49.3V9.63997H51.76V10.36H49.3V12.26H52V13H48.5V6.99997H52V7.73997ZM55.28 13H54.51V7.73997H52.83V6.99997H57V7.73997H55.28V13ZM59.94 13V6.99997H60.71V13H59.94ZM64.13 13H63.36V7.73997H61.68V6.99997H65.8V7.73997H64.13V13ZM73.61 12.22C72.393 13.4302 70.427 13.4302 69.21 12.22C68.0303 10.9712 68.0303 9.01874 69.21 7.76997C69.792 7.18372 70.5839 6.854 71.41 6.854C72.2361 6.854 73.028 7.18372 73.61 7.76997C74.7948 9.01673 74.7948 10.9732 73.61 12.22ZM69.78 11.72C70.6813 12.6175 72.1387 12.6175 73.04 11.72C73.9252 10.7441 73.9252 9.2558 73.04 8.27997C72.1387 7.38241 70.6813 7.38241 69.78 8.27997C68.8948 9.2558 68.8948 10.7441 69.78 11.72ZM75.58 13V6.99997H76.52L79.44 11.67V6.99997H80.21V13H79.41L76.36 8.10997V13H75.58Z" fill="white" stroke="white" stroke-width="0.2"/>
<path d="M10.44 7.53997C10.1141 7.93108 9.94955 8.43177 9.97999 8.93997V31.06C9.94955 31.5682 10.1141 32.0689 10.44 32.46L10.51 32.53L22.9 20.15V19.86L10.51 7.46997L10.44 7.53997Z" fill="url(#paint0_linear_1224_4753)"/>
<path d="M27 24.28L22.9 20.15V19.86L27 15.72L27.09 15.77L32 18.56C33.4 19.35 33.4 20.65 32 21.45L27.11 24.23L27 24.28Z" fill="url(#paint1_linear_1224_4753)"/>
<path d="M27.12 24.22L22.9 20L10.44 32.46C11.0287 32.9775 11.9024 33.0027 12.52 32.52L27.13 24.22" fill="url(#paint2_linear_1224_4753)"/>
<path d="M27.12 15.7801L12.51 7.48005C11.8924 6.99733 11.0187 7.02253 10.43 7.54005L22.9 20.0001L27.12 15.7801Z" fill="url(#paint3_linear_1224_4753)"/>
<path opacity="0.2" d="M27 24.13L12.51 32.38C11.917 32.8233 11.103 32.8233 10.51 32.38L10.44 32.45L10.51 32.52C11.1018 32.9667 11.9182 32.9667 12.51 32.52L27.12 24.22L27 24.13Z" fill="black"/>
<path opacity="0.12" d="M10.44 32.32C10.1141 31.9289 9.94955 31.4282 9.97999 30.92V31.07C9.94955 31.5782 10.1141 32.0789 10.44 32.47L10.51 32.4L10.44 32.32ZM32 21.3L27 24.13L27.09 24.22L32 21.44C32.5671 21.1736 32.9485 20.6244 33 20C32.886 20.5648 32.5167 21.045 32 21.3Z" fill="black"/>
<path opacity="0.25" d="M12.51 7.62006L32 18.7001C32.5167 18.9551 32.886 19.4352 33 20.0001C32.9485 19.3757 32.5671 18.8264 32 18.5601L12.51 7.48006C11.11 6.69006 9.97 7.35006 9.97 8.95006V9.10006C10 7.49006 11.12 6.83006 12.51 7.62006Z" fill="white"/>
<defs>
<linearGradient id="paint0_linear_1224_4753" x1="798.754" y1="131.47" x2="-263.38" y2="1193.6" gradientUnits="userSpaceOnUse">
<stop stop-color="#00A0FF"/>
<stop offset="0.01" stop-color="#00A1FF"/>
<stop offset="0.26" stop-color="#00BEFF"/>
<stop offset="0.51" stop-color="#00D2FF"/>
<stop offset="0.76" stop-color="#00DFFF"/>
<stop offset="1" stop-color="#00E3FF"/>
</linearGradient>
<linearGradient id="paint1_linear_1224_4753" x1="1115.9" y1="443.72" x2="-1303.1" y2="443.72" gradientUnits="userSpaceOnUse">
<stop stop-color="#FFE000"/>
<stop offset="0.41" stop-color="#FFBD00"/>
<stop offset="0.78" stop-color="#FFA500"/>
<stop offset="1" stop-color="#FF9C00"/>
</linearGradient>
<linearGradient id="paint2_linear_1224_4753" x1="1449.44" y1="417.698" x2="-365.004" y2="2231.34" gradientUnits="userSpaceOnUse">
<stop stop-color="#FF3A44"/>
<stop offset="1" stop-color="#C31162"/>
</linearGradient>
<linearGradient id="paint3_linear_1224_4753" x1="-302.57" y1="-145.088" x2="507.302" y2="664.784" gradientUnits="userSpaceOnUse">
<stop stop-color="#32A071"/>
<stop offset="0.07" stop-color="#2DA771"/>
<stop offset="0.48" stop-color="#15CF74"/>
<stop offset="0.8" stop-color="#06E775"/>
<stop offset="1" stop-color="#00F076"/>
</linearGradient>
</defs>
</svg>
