<svg width="16" height="16" viewBox="0 0 16 16" fill="none" xmlns="http://www.w3.org/2000/svg">
<g clip-path="url(#clip0_1224_4778)">
<path fill-rule="evenodd" clip-rule="evenodd" d="M8.15 1L8.85 1.05L8.7 1.65C8.65 1.85 8.6 2.1 8.6 2.3C8.6 3.7 9.7 4.8 11.1 4.8C11.6 4.8 12.1 4.65 12.55 4.35L13.2 5.1C13 5.3 12.9 5.55 12.9 5.8C12.9 6.45 13.55 7 14.25 6.75L14.85 6.5L14.95 7.15C15 7.45 15 7.75 15 8C15 11.85 11.85 15 8 15C4.15 15 1 11.85 1 8C1 4.15 4.15 1 8 1H8.15ZM7.65 2C4.5 2.2 2 4.8 2 8C2 11.3 4.7 14 8 14C11.3 14 14 11.3 14 8V7.8C12.85 7.85 11.9 6.95 11.9 5.8V5.7C11.65 5.75 11.4 5.8 11.1 5.8C9.15 5.8 7.6 4.25 7.6 2.3C7.6 2.2 7.6 2.1 7.65 2ZM8 11C8.27614 11 8.5 11.2239 8.5 11.5C8.5 11.7761 8.27614 12 8 12C7.72386 12 7.5 11.7761 7.5 11.5C7.5 11.2239 7.72386 11 8 11ZM5 9.5C5.55228 9.5 6 9.94771 6 10.5C6 11.0523 5.55228 11.5 5 11.5C4.44772 11.5 4 11.0523 4 10.5C4 9.94771 4.44772 9.5 5 9.5ZM11.5 9C12.0523 9 12.5 9.44771 12.5 10C12.5 10.5523 12.0523 11 11.5 11C10.9477 11 10.5 10.5523 10.5 10C10.5 9.44771 10.9477 9 11.5 9ZM7 7C7.27614 7 7.5 7.22386 7.5 7.5C7.5 7.77614 7.27614 8 7 8C6.72386 8 6.5 7.77614 6.5 7.5C6.5 7.22386 6.72386 7 7 7ZM6.5 4C7.05228 4 7.5 4.44772 7.5 5C7.5 5.55228 7.05228 6 6.5 6C5.94772 6 5.5 5.55228 5.5 5C5.5 4.44772 5.94772 4 6.5 4ZM11.5 1.5C12.0523 1.5 12.5 1.94772 12.5 2.5C12.5 3.05228 12.0523 3.5 11.5 3.5C10.9477 3.5 10.5 3.05228 10.5 2.5C10.5 1.94772 10.9477 1.5 11.5 1.5ZM14.5 1C14.7761 1 15 1.22386 15 1.5C15 1.77614 14.7761 2 14.5 2C14.2239 2 14 1.77614 14 1.5C14 1.22386 14.2239 1 14.5 1Z" fill="#646464"/>
</g>
<defs>
<clipPath id="clip0_1224_4778">
<rect width="16" height="16" fill="white"/>
</clipPath>
</defs>
</svg>
