<svg width="128" height="22" viewBox="0 0 128 22" fill="none" xmlns="http://www.w3.org/2000/svg">
<path d="M128 16.9355C128 17.5591 127.947 18.172 127.841 18.7742C127.735 19.3763 127.459 19.9247 127.014 20.4194C126.569 20.8925 125.891 21.2796 124.979 21.5806C124.067 21.8602 122.806 22 121.195 22C119.859 22 118.746 21.8817 117.856 21.6452C116.966 21.4301 116.255 21.0968 115.725 20.6452C115.217 20.1936 114.846 19.6344 114.612 18.9677C114.4 18.2796 114.294 17.4731 114.294 16.5484H118.619C118.619 17.3011 118.81 17.8065 119.192 18.0645C119.594 18.3226 120.262 18.4516 121.195 18.4516C122.085 18.4516 122.721 18.3333 123.103 18.0968C123.484 17.8387 123.675 17.4516 123.675 16.9355C123.675 16.5914 123.633 16.3011 123.548 16.0645C123.484 15.828 123.336 15.6344 123.103 15.4839C122.87 15.3333 122.541 15.2151 122.117 15.129C121.693 15.043 121.131 14.9677 120.432 14.9032C119.223 14.8172 118.227 14.6559 117.443 14.4194C116.679 14.1828 116.075 13.871 115.63 13.4839C115.185 13.0968 114.877 12.6237 114.708 12.0645C114.538 11.5054 114.453 10.8602 114.453 10.129C114.453 8.43011 115.015 7.17204 116.139 6.35484C117.284 5.51613 118.916 5.09678 121.036 5.09678C122.265 5.09678 123.304 5.19355 124.152 5.3871C125 5.58065 125.689 5.89247 126.219 6.32258C126.749 6.75269 127.131 7.32258 127.364 8.03226C127.597 8.72043 127.714 9.58065 127.714 10.6129H123.389C123.389 10.3979 123.368 10.1828 123.325 9.96774C123.304 9.73118 123.219 9.51613 123.071 9.32258C122.923 9.12903 122.689 8.96774 122.371 8.83871C122.053 8.70968 121.608 8.64516 121.036 8.64516C120.103 8.64516 119.488 8.80645 119.192 9.12903C118.916 9.43011 118.778 9.80645 118.778 10.2581C118.778 10.8387 118.937 11.2688 119.255 11.5484C119.594 11.8065 120.294 11.9785 121.354 12.0645C122.774 12.1936 123.919 12.3656 124.788 12.5806C125.657 12.7742 126.325 13.0645 126.792 13.4516C127.279 13.8172 127.597 14.2796 127.746 14.8387C127.915 15.3979 128 16.0968 128 16.9355Z" fill="black"/>
<path d="M108.283 21.6129L107.552 20.2258C106.64 20.914 105.803 21.3763 105.039 21.6129C104.276 21.871 103.428 22 102.496 22C101.648 22 100.927 21.9032 100.333 21.7097C99.7396 21.5161 99.252 21.2043 98.8704 20.7742C98.4888 20.3226 98.2026 19.7312 98.0118 19C97.8422 18.2688 97.7574 17.3656 97.7574 16.2903V5.48387H102.082V16.1613C102.082 17.0645 102.22 17.6774 102.496 18C102.792 18.3011 103.322 18.4516 104.086 18.4516C104.573 18.4516 105.093 18.3333 105.644 18.0968C106.195 17.8602 106.682 17.5269 107.106 17.0968V5.48387H111.431V21.6129H108.283Z" fill="black"/>
<path d="M80.1844 0.645161H87.5937C88.9081 0.645161 89.9893 0.752687 90.8373 0.967741C91.7065 1.18279 92.3849 1.51613 92.8725 1.96774C93.3813 2.39785 93.731 2.95699 93.9218 3.64516C94.1338 4.31183 94.2398 5.11828 94.2398 6.06452C94.2398 7.22581 94.0172 8.19355 93.572 8.96774C93.148 9.72043 92.5969 10.2796 91.9185 10.6452C93.9112 11.4409 94.9076 13.129 94.9076 15.7097C94.9076 16.6129 94.7804 17.4301 94.526 18.1613C94.2716 18.8925 93.8688 19.5161 93.3177 20.0323C92.7665 20.5269 92.0563 20.914 91.1871 21.1935C90.3179 21.4731 89.2579 21.6129 88.0071 21.6129H80.1844V0.645161ZM87.8799 17.9355C88.7279 17.9355 89.3639 17.7527 89.7879 17.3871C90.2119 17 90.4239 16.3226 90.4239 15.3548C90.4239 14.3011 90.1801 13.6022 89.6925 13.2581C89.2049 12.914 88.5689 12.7419 87.7845 12.7419H84.6364V17.9355H87.8799ZM84.6364 4.32258V9.19355H87.4347C88.2827 9.19355 88.8869 9.01075 89.2473 8.64516C89.6289 8.27957 89.8197 7.64516 89.8197 6.74194C89.8197 5.96774 89.6395 5.37634 89.2791 4.96774C88.9187 4.53763 88.3145 4.32258 87.4665 4.32258H84.6364Z" fill="black"/>
<path d="M72.1998 0H76.5245V21.6129H72.1998V0Z" fill="white"/>
<path d="M65.0871 12.0968C65.0871 11.3871 65.0341 10.8065 64.9281 10.3548C64.8221 9.90323 64.6525 9.55914 64.4193 9.32258C64.2073 9.06452 63.9317 8.89247 63.5926 8.80645C63.2746 8.69893 62.9036 8.64516 62.4796 8.64516C61.3984 8.64516 60.667 8.90323 60.2854 9.41936C59.9038 9.93549 59.713 10.828 59.713 12.0968H65.0871ZM62.5114 18.4516C63.2322 18.4516 63.8575 18.4409 64.3875 18.4194C64.9387 18.3979 65.4369 18.3656 65.8821 18.3226C66.3485 18.2581 66.7937 18.1936 67.2177 18.129C67.6417 18.0645 68.1081 17.9893 68.6169 17.9032V21.4194C67.7053 21.5914 66.7407 21.7312 65.7231 21.8387C64.7267 21.9462 63.6667 22 62.5432 22C61.356 22 60.3172 21.8817 59.4268 21.6452C58.5364 21.4301 57.7944 21.043 57.2008 20.4839C56.6073 19.9032 56.1515 19.1398 55.8335 18.1936C55.5367 17.2258 55.3883 16 55.3883 14.5161V12.5484C55.3883 11.1075 55.5367 9.90323 55.8335 8.93549C56.1303 7.96774 56.5755 7.2043 57.169 6.64516C57.7626 6.08602 58.5046 5.68817 59.395 5.45161C60.2854 5.21505 61.3242 5.09678 62.5114 5.09678C63.6349 5.09678 64.6207 5.21505 65.4687 5.45161C66.3379 5.66667 67.0587 6.06452 67.6311 6.64516C68.2035 7.2043 68.6275 7.96774 68.9031 8.93549C69.1999 9.88172 69.3483 11.0968 69.3483 12.5806V15H59.713C59.713 16.1183 59.8932 16.9785 60.2536 17.5806C60.614 18.1613 61.3666 18.4516 62.5114 18.4516Z" fill="white"/>
<path d="M46.5361 17.2258H46.5997L49.4617 5.48387H54.1044L49.0483 21.6129H44.0876L39.0314 5.48387H43.6742L46.5361 17.2258Z" fill="white"/>
<path d="M29.5353 18.4516C30.2349 18.4516 30.8815 18.3441 31.4751 18.129C32.0686 17.8925 32.6092 17.5591 33.0968 17.129V14.6129L29.4717 15.0323C28.3269 15.1613 27.7545 15.7527 27.7545 16.8065C27.7545 17.3656 27.9135 17.7849 28.2315 18.0645C28.5707 18.3226 29.0053 18.4516 29.5353 18.4516ZM23.4298 17.2258C23.4298 15.8065 23.822 14.6882 24.6064 13.871C25.3907 13.0538 26.7263 12.5806 28.6131 12.4516L33.0968 12.129V10.7097C33.0968 9.95699 32.9166 9.43011 32.5562 9.12903C32.217 8.80645 31.5917 8.64516 30.6801 8.64516C29.7473 8.64516 29.1113 8.81721 28.7721 9.16129C28.4329 9.48387 28.2633 10.0108 28.2633 10.7419H24.0022C24.0022 8.89247 24.511 7.49463 25.5285 6.54839C26.5461 5.58065 28.2527 5.09678 30.6483 5.09678C33.1074 5.09678 34.8458 5.55914 35.8634 6.48387C36.9022 7.4086 37.4216 8.8172 37.4216 10.7097V21.6129H34.2734L33.542 20.2258C32.1004 21.4086 30.4787 22 28.6767 22C26.8959 22 25.5709 21.5807 24.7018 20.7419C23.8538 19.8817 23.4298 18.7097 23.4298 17.2258Z" fill="white"/>
<path d="M21.8366 8.96774C21.0946 8.96774 20.3738 9.07527 19.6742 9.29032C18.9958 9.50538 18.4128 9.80645 17.9252 10.1936V21.6129H13.6005V5.48387H16.6532L17.3528 6.67742C18.0312 6.13978 18.7414 5.74194 19.4834 5.48387C20.2466 5.22581 21.031 5.09678 21.8366 5.09678V8.96774Z" fill="white"/>
<path d="M4.57913 4.32258H0V0.645161H13.6102V4.32258H9.03106V21.6129H4.57913V4.32258Z" fill="white"/>
</svg>
