<svg width="24" height="24" viewBox="0 0 24 24" fill="none" xmlns="http://www.w3.org/2000/svg">
<path d="M2.00488 9.49982V3.99982C2.00488 3.44753 2.4526 2.99982 3.00488 2.99982H21.0049C21.5572 2.99982 22.0049 3.44753 22.0049 3.99982V9.49982C20.6242 9.49982 19.5049 10.6191 19.5049 11.9998C19.5049 13.3805 20.6242 14.4998 22.0049 14.4998V19.9998C22.0049 20.5521 21.5572 20.9998 21.0049 20.9998H3.00488C2.4526 20.9998 2.00488 20.5521 2.00488 19.9998V14.4998C3.38559 14.4998 4.50488 13.3805 4.50488 11.9998C4.50488 10.6191 3.38559 9.49982 2.00488 9.49982ZM4.00488 7.96758C5.4866 8.70393 6.50488 10.2329 6.50488 11.9998C6.50488 13.7666 5.4866 15.2957 4.00488 16.032V18.9998H20.0049V16.032C18.5232 15.2957 17.5049 13.7666 17.5049 11.9998C17.5049 10.2329 18.5232 8.70393 20.0049 7.96758V4.99982H4.00488V7.96758ZM9.00488 8.99982H15.0049V10.9998H9.00488V8.99982ZM9.00488 12.9998H15.0049V14.9998H9.00488V12.9998Z" fill="#646464"/>
</svg>
